<?xml version="1.0" encoding="UTF-8" standalone="no"?>
<!DOCTYPE svg PUBLIC "-//W3C//DTD SVG 1.1//EN"
 "http://www.w3.org/Graphics/SVG/1.1/DTD/svg11.dtd">
<!-- Generated by graphviz version 7.0.4 (0)
 -->
<!-- Title: day3.test Pages: 1 -->
<svg width="100%" height="100%" xmlns="http://www.w3.org/2000/svg" xmlns:xlink="http://www.w3.org/1999/xlink">
<script type="text/ecmascript"><![CDATA[
/**
 *  SVGPan library 1.2.2
 * ======================
 *
 * Given an unique existing element with id "viewport" (or when missing, the
 * first g-element), including the library into any SVG adds the following
 * capabilities:
 *
 *  - Mouse panning
 *  - Mouse zooming (using the wheel)
 *  - Object dragging
 *
 * You can configure the behaviour of the pan/zoom/drag with the variables
 * listed in the CONFIGURATION section of this file.
 *
 * Known issues:
 *
 *  - Zooming (while panning) on Safari has still some issues
 *
 * Releases:
 *
 * 1.2.2, Tue Aug 30 17:21:56 CEST 2011, Andrea Leofreddi
 *	- Fixed viewBox on root tag (#7)
 *	- Improved zoom speed (#2)
 *
 * 1.2.1, Mon Jul  4 00:33:18 CEST 2011, Andrea Leofreddi
 *	- Fixed a regression with mouse wheel (now working on Firefox 5)
 *	- Working with viewBox attribute (#4)
 *	- Added "use strict;" and fixed resulting warnings (#5)
 *	- Added configuration variables, dragging is disabled by default (#3)
 *
 * 1.2, Sat Mar 20 08:42:50 GMT 2010, Zeng Xiaohui
 *	Fixed a bug with browser mouse handler interaction
 *
 * 1.1, Wed Feb  3 17:39:33 GMT 2010, Zeng Xiaohui
 *	Updated the zoom code to support the mouse wheel on Safari/Chrome
 *
 * 1.0, Andrea Leofreddi
 *	First release
 *
 * This code is licensed under the following BSD license:
 *
 * Copyright 2009-2017 Andrea Leofreddi <a.leofreddi@vleo.net>. All rights reserved.
 *
 * Redistribution and use in source and binary forms, with or without modification, are
 * permitted provided that the following conditions are met:
 *
 *    1. Redistributions of source code must retain the above copyright
 *       notice, this list of conditions and the following disclaimer.
 *    2. Redistributions in binary form must reproduce the above copyright
 *       notice, this list of conditions and the following disclaimer in the
 *       documentation and/or other materials provided with the distribution.
 *    3. Neither the name of the copyright holder nor the names of its
 *       contributors may be used to endorse or promote products derived from
 *       this software without specific prior written permission.
 *
 * THIS SOFTWARE IS PROVIDED BY COPYRIGHT HOLDERS AND CONTRIBUTORS ''AS IS'' AND ANY EXPRESS
 * OR IMPLIED WARRANTIES, INCLUDING, BUT NOT LIMITED TO, THE IMPLIED WARRANTIES OF MERCHANTABILITY
 * AND FITNESS FOR A PARTICULAR PURPOSE ARE DISCLAIMED. IN NO EVENT SHALL COPYRIGHT HOLDERS OR
 * CONTRIBUTORS BE LIABLE FOR ANY DIRECT, INDIRECT, INCIDENTAL, SPECIAL, EXEMPLARY, OR
 * CONSEQUENTIAL DAMAGES (INCLUDING, BUT NOT LIMITED TO, PROCUREMENT OF SUBSTITUTE GOODS OR
 * SERVICES; LOSS OF USE, DATA, OR PROFITS; OR BUSINESS INTERRUPTION) HOWEVER CAUSED AND ON
 * ANY THEORY OF LIABILITY, WHETHER IN CONTRACT, STRICT LIABILITY, OR TORT (INCLUDING
 * NEGLIGENCE OR OTHERWISE) ARISING IN ANY WAY OUT OF THE USE OF THIS SOFTWARE, EVEN IF
 * ADVISED OF THE POSSIBILITY OF SUCH DAMAGE.
 *
 * The views and conclusions contained in the software and documentation are those of the
 * authors and should not be interpreted as representing official policies, either expressed
 * or implied, of Andrea Leofreddi.
 */

"use strict";

/// CONFIGURATION
/// ====>

var enablePan = 1; // 1 or 0: enable or disable panning (default enabled)
var enableZoom = 1; // 1 or 0: enable or disable zooming (default enabled)
var enableDrag = 0; // 1 or 0: enable or disable dragging (default disabled)
var zoomScale = 0.2; // Zoom sensitivity

/// <====
/// END OF CONFIGURATION

var root = document.documentElement;

var state = 'none', svgRoot = null, stateTarget, stateOrigin, stateTf;

setupHandlers(root);

/**
 * Register handlers
 */
function setupHandlers(root){
	setAttributes(root, {
		"onmouseup" : "handleMouseUp(evt)",
		"onmousedown" : "handleMouseDown(evt)",
		"onmousemove" : "handleMouseMove(evt)",
		//"onmouseout" : "handleMouseUp(evt)", // Decomment this to stop the pan functionality when dragging out of the SVG element
	});

	if(navigator.userAgent.toLowerCase().indexOf('webkit') >= 0)
		window.addEventListener('mousewheel', handleMouseWheel, false); // Chrome/Safari
	else
		window.addEventListener('DOMMouseScroll', handleMouseWheel, false); // Others
}

/**
 * Retrieves the root element for SVG manipulation. The element is then cached into the svgRoot global variable.
 */
function getRoot(root) {
	if(svgRoot == null) {
		var r = root.getElementById("viewport") ? root.getElementById("viewport") : root.documentElement, t = r;

		while(t != root) {
			if(t.getAttribute("viewBox")) {
				setCTM(r, t.getCTM());

				t.removeAttribute("viewBox");
			}

			t = t.parentNode;
		}

		svgRoot = r;
	}

	return svgRoot;
}

/**
 * Instance an SVGPoint object with given event coordinates.
 */
function getEventPoint(evt) {
	var p = root.createSVGPoint();

	p.x = evt.clientX;
	p.y = evt.clientY;

	return p;
}

/**
 * Sets the current transform matrix of an element.
 */
function setCTM(element, matrix) {
	var s = "matrix(" + matrix.a + "," + matrix.b + "," + matrix.c + "," + matrix.d + "," + matrix.e + "," + matrix.f + ")";

	element.setAttribute("transform", s);
}

/**
 * Dumps a matrix to a string (useful for debug).
 */
function dumpMatrix(matrix) {
	var s = "[ " + matrix.a + ", " + matrix.c + ", " + matrix.e + "\n  " + matrix.b + ", " + matrix.d + ", " + matrix.f + "\n  0, 0, 1 ]";

	return s;
}

/**
 * Sets attributes of an element.
 */
function setAttributes(element, attributes){
	for (var i in attributes)
		element.setAttributeNS(null, i, attributes[i]);
}

/**
 * Handle mouse wheel event.
 */
function handleMouseWheel(evt) {
	if(!enableZoom)
		return;

	if(evt.preventDefault)
		evt.preventDefault();

	evt.returnValue = false;

	var svgDoc = evt.target.ownerDocument;

	var delta;

	if(evt.wheelDelta)
		delta = evt.wheelDelta / 360; // Chrome/Safari
	else
		delta = evt.detail / -9; // Mozilla

	var z = Math.pow(1 + zoomScale, delta);

	var g = getRoot(svgDoc);
	
	var p = getEventPoint(evt);

	p = p.matrixTransform(g.getCTM().inverse());

	// Compute new scale matrix in current mouse position
	var k = root.createSVGMatrix().translate(p.x, p.y).scale(z).translate(-p.x, -p.y);

        setCTM(g, g.getCTM().multiply(k));

	if(typeof(stateTf) == "undefined")
		stateTf = g.getCTM().inverse();

	stateTf = stateTf.multiply(k.inverse());
}

/**
 * Handle mouse move event.
 */
function handleMouseMove(evt) {
	if(evt.preventDefault)
		evt.preventDefault();

	evt.returnValue = false;

	var svgDoc = evt.target.ownerDocument;

	var g = getRoot(svgDoc);

	if(state == 'pan' && enablePan) {
		// Pan mode
		var p = getEventPoint(evt).matrixTransform(stateTf);

		setCTM(g, stateTf.inverse().translate(p.x - stateOrigin.x, p.y - stateOrigin.y));
	} else if(state == 'drag' && enableDrag) {
		// Drag mode
		var p = getEventPoint(evt).matrixTransform(g.getCTM().inverse());

		setCTM(stateTarget, root.createSVGMatrix().translate(p.x - stateOrigin.x, p.y - stateOrigin.y).multiply(g.getCTM().inverse()).multiply(stateTarget.getCTM()));

		stateOrigin = p;
	}
}

/**
 * Handle click event.
 */
function handleMouseDown(evt) {
	if(evt.preventDefault)
		evt.preventDefault();

	evt.returnValue = false;

	var svgDoc = evt.target.ownerDocument;

	var g = getRoot(svgDoc);

	if(
		evt.target.tagName == "svg"
		|| !enableDrag // Pan anyway when drag is disabled and the user clicked on an element
	) {
		// Pan mode
		state = 'pan';

		stateTf = g.getCTM().inverse();

		stateOrigin = getEventPoint(evt).matrixTransform(stateTf);
	} else {
		// Drag mode
		state = 'drag';

		stateTarget = evt.target;

		stateTf = g.getCTM().inverse();

		stateOrigin = getEventPoint(evt).matrixTransform(stateTf);
	}
}

/**
 * Handle mouse button release event.
 */
function handleMouseUp(evt) {
	if(evt.preventDefault)
		evt.preventDefault();

	evt.returnValue = false;

	var svgDoc = evt.target.ownerDocument;

	if(state == 'pan' || state == 'drag') {
		// Quit pan mode
		state = '';
	}
}
]]></script><g id="viewport" transform="scale(0.5,0.5) translate(0,0)"><g id="graph0" class="graph" transform="scale(1 1) rotate(0) translate(4 929)">
<title>day3.test</title>
<polygon fill="white" stroke="none" points="-4,4 -4,-929 1509,-929 1509,4 -4,4"/>
<g id="clust1" class="cluster">
<title>cluster_L</title>
<polygon fill="none" stroke="black" points="8,-766 8,-917 632,-917 632,-766 8,-766"/>
</g>
<!-- File: day3.test -->
<g id="node1" class="node">
<title>File: day3.test</title>
<g id="a_node1"><a xlink:title="day3.test">
<polygon fill="#f8f8f8" stroke="black" points="624,-909 16,-909 16,-774 624,-774 624,-909"/>
<text text-anchor="start" x="24" y="-892.2" font-family="Times,serif" font-size="16.00">File: day3.test</text>
<text text-anchor="start" x="24" y="-874.2" font-family="Times,serif" font-size="16.00">Type: alloc_space</text>
<text text-anchor="start" x="24" y="-856.2" font-family="Times,serif" font-size="16.00">Time: Dec 4, 2022 at 10:54pm (WET)</text>
<text text-anchor="start" x="24" y="-838.2" font-family="Times,serif" font-size="16.00">Showing nodes accounting for 2395.03MB, 99.69% of 2402.43MB total</text>
<text text-anchor="start" x="24" y="-820.2" font-family="Times,serif" font-size="16.00">Dropped 35 nodes (cum &lt;= 12.01MB)</text>
<text text-anchor="start" x="24" y="-783.2" font-family="Times,serif" font-size="16.00">See https://git.io/JfYMW for how to read the graph</text>
</a>
</g>
</g>
<!-- N1 -->
<g id="node1" class="node">
<title>N1</title>
<g id="a_node1"><a xlink:title="github.com/pineman/code/chall/aoc2022/go/day3.itemMap (1986.64MB)">
<polygon fill="#edd6d5" stroke="#b20900" points="839,-439 567,-439 567,-353 839,-353 839,-439"/>
<text text-anchor="middle" x="703" y="-415.8" font-family="Times,serif" font-size="24.00">day3</text>
<text text-anchor="middle" x="703" y="-389.8" font-family="Times,serif" font-size="24.00">itemMap</text>
<text text-anchor="middle" x="703" y="-363.8" font-family="Times,serif" font-size="24.00">1986.64MB (82.69%)</text>
</a>
</g>
</g>
<!-- NN1_0 -->
<g id="NN1_0" class="node">
<title>NN1_0</title>
<g id="a_NN1_0"><a xlink:title="1135.99MB">
<polygon fill="#f8f8f8" stroke="black" points="517,-302 467,-302 463,-298 463,-266 513,-266 517,-270 517,-302"/>
<polyline fill="none" stroke="black" points="513,-298 463,-298"/>
<polyline fill="none" stroke="black" points="513,-298 513,-266"/>
<polyline fill="none" stroke="black" points="513,-298 517,-302"/>
<text text-anchor="middle" x="490" y="-282.1" font-family="Times,serif" font-size="8.00">448B</text>
</a>
</g>
</g>
<!-- N1&#45;&gt;NN1_0 -->
<g id="edge1" class="edge">
<title>N1&#45;&gt;NN1_0</title>
<g id="a_edge1"><a xlink:title="1135.99MB">
<path fill="none" stroke="black" d="M566.88,-362.71C550.11,-355.27 533.98,-346.16 520,-335 512.55,-329.05 506.51,-320.71 501.87,-312.54"/>
<polygon fill="black" stroke="black" points="505.08,-311.13 497.41,-303.83 498.85,-314.32 505.08,-311.13"/>
</a>
</g>
<g id="a_edge1&#45;label"><a xlink:title="1135.99MB">
<text text-anchor="middle" x="564" y="-323.8" font-family="Times,serif" font-size="14.00"> 1135.99MB</text>
</a>
</g>
</g>
<!-- NN1_1 -->
<g id="NN1_1" class="node">
<title>NN1_1</title>
<g id="a_NN1_1"><a xlink:title="683.15MB">
<polygon fill="#f8f8f8" stroke="black" points="628,-302 578,-302 574,-298 574,-266 624,-266 628,-270 628,-302"/>
<polyline fill="none" stroke="black" points="624,-298 574,-298"/>
<polyline fill="none" stroke="black" points="624,-298 624,-266"/>
<polyline fill="none" stroke="black" points="624,-298 628,-302"/>
<text text-anchor="middle" x="601" y="-282.1" font-family="Times,serif" font-size="8.00">224B</text>
</a>
</g>
</g>
<!-- N1&#45;&gt;NN1_1 -->
<g id="edge2" class="edge">
<title>N1&#45;&gt;NN1_1</title>
<g id="a_edge2"><a xlink:title="683.15MB">
<path fill="none" stroke="black" d="M636.71,-352.85C630.59,-347.32 624.87,-341.35 620,-335 615.07,-328.56 611.29,-320.7 608.45,-313.13"/>
<polygon fill="black" stroke="black" points="611.86,-312.3 605.41,-303.89 605.21,-314.48 611.86,-312.3"/>
</a>
</g>
<g id="a_edge2&#45;label"><a xlink:title="683.15MB">
<text text-anchor="middle" x="659.5" y="-323.8" font-family="Times,serif" font-size="14.00"> 683.15MB</text>
</a>
</g>
</g>
<!-- NN1_2 -->
<g id="NN1_2" class="node">
<title>NN1_2</title>
<g id="a_NN1_2"><a xlink:title="117.51MB">
<polygon fill="#f8f8f8" stroke="black" points="730,-302 680,-302 676,-298 676,-266 726,-266 730,-270 730,-302"/>
<polyline fill="none" stroke="black" points="726,-298 676,-298"/>
<polyline fill="none" stroke="black" points="726,-298 726,-266"/>
<polyline fill="none" stroke="black" points="726,-298 730,-302"/>
<text text-anchor="middle" x="703" y="-282.1" font-family="Times,serif" font-size="8.00">112B</text>
</a>
</g>
</g>
<!-- N1&#45;&gt;NN1_2 -->
<g id="edge3" class="edge">
<title>N1&#45;&gt;NN1_2</title>
<g id="a_edge3"><a xlink:title="117.51MB">
<path fill="none" stroke="black" d="M703,-352.79C703,-339.75 703,-325.69 703,-313.78"/>
<polygon fill="black" stroke="black" points="706.5,-313.78 703,-303.78 699.5,-313.78 706.5,-313.78"/>
</a>
</g>
<g id="a_edge3&#45;label"><a xlink:title="117.51MB">
<text text-anchor="middle" x="742.5" y="-323.8" font-family="Times,serif" font-size="14.00"> 117.51MB</text>
</a>
</g>
</g>
<!-- NN1_3 -->
<g id="NN1_3" class="node">
<title>NN1_3</title>
<g id="a_NN1_3"><a xlink:title="41MB">
<polygon fill="#f8f8f8" stroke="black" points="832,-302 782,-302 778,-298 778,-266 828,-266 832,-270 832,-302"/>
<polyline fill="none" stroke="black" points="828,-298 778,-298"/>
<polyline fill="none" stroke="black" points="828,-298 828,-266"/>
<polyline fill="none" stroke="black" points="828,-298 832,-302"/>
<text text-anchor="middle" x="805" y="-282.1" font-family="Times,serif" font-size="8.00">24B</text>
</a>
</g>
</g>
<!-- N1&#45;&gt;NN1_3 -->
<g id="edge4" class="edge">
<title>N1&#45;&gt;NN1_3</title>
<g id="a_edge4"><a xlink:title="41MB">
<path fill="none" stroke="black" d="M766.16,-352.74C772.27,-347.2 778.04,-341.26 783,-335 788.15,-328.51 792.35,-320.63 795.64,-313.06"/>
<polygon fill="black" stroke="black" points="798.88,-314.39 799.27,-303.81 792.36,-311.83 798.88,-314.39"/>
</a>
</g>
<g id="a_edge4&#45;label"><a xlink:title="41MB">
<text text-anchor="middle" x="815" y="-323.8" font-family="Times,serif" font-size="14.00"> 41MB</text>
</a>
</g>
</g>
<!-- N2 -->
<g id="node2" class="node">
<title>N2</title>
<g id="a_node2"><a xlink:title="testing.(*B).run1.func1 (2395.03MB)">
<polygon fill="#edd5d5" stroke="#b20000" points="763.5,-868 642.5,-868 642.5,-815 763.5,-815 763.5,-868"/>
<text text-anchor="middle" x="703" y="-857.6" font-family="Times,serif" font-size="8.00">testing</text>
<text text-anchor="middle" x="703" y="-848.6" font-family="Times,serif" font-size="8.00">(*B)</text>
<text text-anchor="middle" x="703" y="-839.6" font-family="Times,serif" font-size="8.00">run1</text>
<text text-anchor="middle" x="703" y="-830.6" font-family="Times,serif" font-size="8.00">func1</text>
<text text-anchor="middle" x="703" y="-821.6" font-family="Times,serif" font-size="8.00">0 of 2395.03MB (99.69%)</text>
</a>
</g>
</g>
<!-- N12 -->
<g id="node12" class="node">
<title>N12</title>
<g id="a_node12"><a xlink:title="testing.(*B).runN (2395.03MB)">
<polygon fill="#edd5d5" stroke="#b20000" points="763.5,-723 642.5,-723 642.5,-679 763.5,-679 763.5,-723"/>
<text text-anchor="middle" x="703" y="-712.6" font-family="Times,serif" font-size="8.00">testing</text>
<text text-anchor="middle" x="703" y="-703.6" font-family="Times,serif" font-size="8.00">(*B)</text>
<text text-anchor="middle" x="703" y="-694.6" font-family="Times,serif" font-size="8.00">runN</text>
<text text-anchor="middle" x="703" y="-685.6" font-family="Times,serif" font-size="8.00">0 of 2395.03MB (99.69%)</text>
</a>
</g>
</g>
<!-- N2&#45;&gt;N12 -->
<g id="edge11" class="edge">
<title>N2&#45;&gt;N12</title>
<g id="a_edge11"><a xlink:title="testing.(*B).run1.func1 &#45;&gt; testing.(*B).runN (2395.03MB)">
<path fill="none" stroke="#b20000" stroke-width="5" d="M703,-814.77C703,-793.62 703,-763.36 703,-739.51"/>
<polygon fill="#b20000" stroke="#b20000" stroke-width="5" points="707.38,-739.74 703,-729.74 698.63,-739.74 707.38,-739.74"/>
</a>
</g>
<g id="a_edge11&#45;label"><a xlink:title="testing.(*B).run1.func1 &#45;&gt; testing.(*B).runN (2395.03MB)">
<text text-anchor="middle" x="747" y="-744.8" font-family="Times,serif" font-size="14.00"> 2395.03MB</text>
</a>
</g>
</g>
<!-- N3 -->
<g id="node3" class="node">
<title>N3</title>
<g id="a_node3"><a xlink:title="github.com/pineman/code/chall/aoc2022/go/day3.Benchmark_partTwoBigBoy_set (2395.03MB)">
<polygon fill="#edd5d5" stroke="#b20000" points="774.5,-628 631.5,-628 631.5,-592 774.5,-592 774.5,-628"/>
<text text-anchor="middle" x="703" y="-617.1" font-family="Times,serif" font-size="8.00">day3</text>
<text text-anchor="middle" x="703" y="-608.1" font-family="Times,serif" font-size="8.00">Benchmark_partTwoBigBoy_set</text>
<text text-anchor="middle" x="703" y="-599.1" font-family="Times,serif" font-size="8.00">0 of 2395.03MB (99.69%)</text>
</a>
</g>
</g>
<!-- N4 -->
<g id="node4" class="node">
<title>N4</title>
<g id="a_node4"><a xlink:title="github.com/pineman/code/chall/aoc2022/go/day3.partTwo_set (2144.65MB)">
<polygon fill="#edd6d5" stroke="#b20500" points="763.5,-541 642.5,-541 642.5,-505 763.5,-505 763.5,-541"/>
<text text-anchor="middle" x="703" y="-530.1" font-family="Times,serif" font-size="8.00">day3</text>
<text text-anchor="middle" x="703" y="-521.1" font-family="Times,serif" font-size="8.00">partTwo_set</text>
<text text-anchor="middle" x="703" y="-512.1" font-family="Times,serif" font-size="8.00">0 of 2144.65MB (89.27%)</text>
</a>
</g>
</g>
<!-- N3&#45;&gt;N4 -->
<g id="edge13" class="edge">
<title>N3&#45;&gt;N4</title>
<g id="a_edge13"><a xlink:title="github.com/pineman/code/chall/aoc2022/go/day3.Benchmark_partTwoBigBoy_set &#45;&gt; github.com/pineman/code/chall/aoc2022/go/day3.partTwo_set (2144.65MB)">
<path fill="none" stroke="#b20500" stroke-width="5" d="M703,-591.8C703,-581.96 703,-569.27 703,-557.53"/>
<polygon fill="#b20500" stroke="#b20500" stroke-width="5" points="707.38,-557.7 703,-547.7 698.63,-557.7 707.38,-557.7"/>
</a>
</g>
<g id="a_edge13&#45;label"><a xlink:title="github.com/pineman/code/chall/aoc2022/go/day3.Benchmark_partTwoBigBoy_set &#45;&gt; github.com/pineman/code/chall/aoc2022/go/day3.partTwo_set (2144.65MB)">
<text text-anchor="middle" x="747" y="-562.8" font-family="Times,serif" font-size="14.00"> 2144.65MB</text>
</a>
</g>
</g>
<!-- N10 -->
<g id="node10" class="node">
<title>N10</title>
<g id="a_node10"><a xlink:title="github.com/pineman/code/chall/aoc2022/go.GetBigBoyInput (250.38MB)">
<polygon fill="#ede6e0" stroke="#b28355" points="1053,-541 937,-541 937,-505 1053,-505 1053,-541"/>
<text text-anchor="middle" x="995" y="-530.1" font-family="Times,serif" font-size="8.00">go</text>
<text text-anchor="middle" x="995" y="-521.1" font-family="Times,serif" font-size="8.00">GetBigBoyInput</text>
<text text-anchor="middle" x="995" y="-512.1" font-family="Times,serif" font-size="8.00">0 of 250.38MB (10.42%)</text>
</a>
</g>
</g>
<!-- N3&#45;&gt;N10 -->
<g id="edge16" class="edge">
<title>N3&#45;&gt;N10</title>
<g id="a_edge16"><a xlink:title="github.com/pineman/code/chall/aoc2022/go/day3.Benchmark_partTwoBigBoy_set &#45;&gt; github.com/pineman/code/chall/aoc2022/go.GetBigBoyInput (250.38MB)">
<path fill="none" stroke="#b28355" d="M762.8,-591.59C810.11,-577.82 876.24,-558.57 925.83,-544.14"/>
<polygon fill="#b28355" stroke="#b28355" points="926.7,-547.53 935.33,-541.37 924.75,-540.81 926.7,-547.53"/>
</a>
</g>
<g id="a_edge16&#45;label"><a xlink:title="github.com/pineman/code/chall/aoc2022/go/day3.Benchmark_partTwoBigBoy_set &#45;&gt; github.com/pineman/code/chall/aoc2022/go.GetBigBoyInput (250.38MB)">
<text text-anchor="middle" x="905.5" y="-562.8" font-family="Times,serif" font-size="14.00"> 250.38MB</text>
</a>
</g>
</g>
<!-- N4&#45;&gt;N1 -->
<g id="edge14" class="edge">
<title>N4&#45;&gt;N1</title>
<g id="a_edge14"><a xlink:title="github.com/pineman/code/chall/aoc2022/go/day3.partTwo_set &#45;&gt; github.com/pineman/code/chall/aoc2022/go/day3.itemMap (1986.64MB)">
<path fill="none" stroke="#b20900" stroke-width="5" d="M703,-504.62C703,-491.73 703,-473.35 703,-455.43"/>
<polygon fill="#b20900" stroke="#b20900" stroke-width="5" points="707.38,-455.5 703,-445.5 698.63,-455.5 707.38,-455.5"/>
</a>
</g>
<g id="a_edge14&#45;label"><a xlink:title="github.com/pineman/code/chall/aoc2022/go/day3.partTwo_set &#45;&gt; github.com/pineman/code/chall/aoc2022/go/day3.itemMap (1986.64MB)">
<text text-anchor="middle" x="747" y="-475.8" font-family="Times,serif" font-size="14.00"> 1986.64MB</text>
<text text-anchor="middle" x="747" y="-460.8" font-family="Times,serif" font-size="14.00"> (inline)</text>
</a>
</g>
</g>
<!-- N6 -->
<g id="node6" class="node">
<title>N6</title>
<g id="a_node6"><a xlink:title="github.com/pineman/code/chall/aoc2022/go/day3.intersectMap (112.01MB)">
<polygon fill="#edeae7" stroke="#b2a188" points="986.5,-419.5 857.5,-419.5 857.5,-372.5 986.5,-372.5 986.5,-419.5"/>
<text text-anchor="middle" x="922" y="-405.9" font-family="Times,serif" font-size="12.00">day3</text>
<text text-anchor="middle" x="922" y="-392.9" font-family="Times,serif" font-size="12.00">intersectMap</text>
<text text-anchor="middle" x="922" y="-379.9" font-family="Times,serif" font-size="12.00">112.01MB (4.66%)</text>
</a>
</g>
</g>
<!-- N4&#45;&gt;N6 -->
<g id="edge17" class="edge">
<title>N4&#45;&gt;N6</title>
<g id="a_edge17"><a xlink:title="github.com/pineman/code/chall/aoc2022/go/day3.partTwo_set &#45;&gt; github.com/pineman/code/chall/aoc2022/go/day3.intersectMap (112.01MB)">
<path fill="none" stroke="#b2a188" d="M755.59,-504.61C768.75,-499.56 782.64,-493.6 795,-487 827.14,-469.86 860.64,-445.82 885.16,-426.9"/>
<polygon fill="#b2a188" stroke="#b2a188" points="887.17,-429.76 892.9,-420.85 882.87,-424.25 887.17,-429.76"/>
</a>
</g>
<g id="a_edge17&#45;label"><a xlink:title="github.com/pineman/code/chall/aoc2022/go/day3.partTwo_set &#45;&gt; github.com/pineman/code/chall/aoc2022/go/day3.intersectMap (112.01MB)">
<text text-anchor="middle" x="881.5" y="-475.8" font-family="Times,serif" font-size="14.00"> 112.01MB</text>
<text text-anchor="middle" x="881.5" y="-460.8" font-family="Times,serif" font-size="14.00"> (inline)</text>
</a>
</g>
</g>
<!-- N9 -->
<g id="node9" class="node">
<title>N9</title>
<g id="a_node9"><a xlink:title="github.com/pineman/code/chall/aoc2022/go/day3.getFirstKey (46MB)">
<polygon fill="#edecea" stroke="#b2ada1" points="1111.5,-418 1014.5,-418 1014.5,-374 1111.5,-374 1111.5,-418"/>
<text text-anchor="middle" x="1063" y="-405.2" font-family="Times,serif" font-size="11.00">day3</text>
<text text-anchor="middle" x="1063" y="-393.2" font-family="Times,serif" font-size="11.00">getFirstKey</text>
<text text-anchor="middle" x="1063" y="-381.2" font-family="Times,serif" font-size="11.00">46MB (1.91%)</text>
</a>
</g>
</g>
<!-- N4&#45;&gt;N9 -->
<g id="edge21" class="edge">
<title>N4&#45;&gt;N9</title>
<g id="a_edge21"><a xlink:title="github.com/pineman/code/chall/aoc2022/go/day3.partTwo_set &#45;&gt; github.com/pineman/code/chall/aoc2022/go/day3.getFirstKey (46MB)">
<path fill="none" stroke="#b2ada1" d="M763.66,-519.31C809.31,-515.66 872.74,-507.1 925,-487 963.45,-472.21 1002.31,-445.58 1028.96,-425.11"/>
<polygon fill="#b2ada1" stroke="#b2ada1" points="1030.94,-428 1036.66,-419.09 1026.62,-422.49 1030.94,-428"/>
</a>
</g>
<g id="a_edge21&#45;label"><a xlink:title="github.com/pineman/code/chall/aoc2022/go/day3.partTwo_set &#45;&gt; github.com/pineman/code/chall/aoc2022/go/day3.getFirstKey (46MB)">
<text text-anchor="middle" x="1008.5" y="-475.8" font-family="Times,serif" font-size="14.00"> 46MB</text>
<text text-anchor="middle" x="1008.5" y="-460.8" font-family="Times,serif" font-size="14.00"> (inline)</text>
</a>
</g>
</g>
<!-- N5 -->
<g id="node5" class="node">
<title>N5</title>
<g id="a_node5"><a xlink:title="github.com/pineman/code/chall/aoc2022/go.getInput (250.38MB)">
<polygon fill="#ede6e0" stroke="#b28355" points="1282,-426 1130,-426 1130,-366 1282,-366 1282,-426"/>
<text text-anchor="middle" x="1206" y="-412.4" font-family="Times,serif" font-size="12.00">go</text>
<text text-anchor="middle" x="1206" y="-399.4" font-family="Times,serif" font-size="12.00">getInput</text>
<text text-anchor="middle" x="1206" y="-386.4" font-family="Times,serif" font-size="12.00">100.66MB (4.19%)</text>
<text text-anchor="middle" x="1206" y="-373.4" font-family="Times,serif" font-size="12.00">of 250.38MB (10.42%)</text>
</a>
</g>
</g>
<!-- NN5_0 -->
<g id="NN5_0" class="node">
<title>NN5_0</title>
<g id="a_NN5_0"><a xlink:title="100.66MB">
<polygon fill="#f8f8f8" stroke="black" points="1235.5,-302 1180.5,-302 1176.5,-298 1176.5,-266 1231.5,-266 1235.5,-270 1235.5,-302"/>
<polyline fill="none" stroke="black" points="1231.5,-298 1176.5,-298"/>
<polyline fill="none" stroke="black" points="1231.5,-298 1231.5,-266"/>
<polyline fill="none" stroke="black" points="1231.5,-298 1235.5,-302"/>
<text text-anchor="middle" x="1206" y="-282.1" font-family="Times,serif" font-size="8.00">100.66MB</text>
</a>
</g>
</g>
<!-- N5&#45;&gt;NN5_0 -->
<g id="edge5" class="edge">
<title>N5&#45;&gt;NN5_0</title>
<g id="a_edge5"><a xlink:title="100.66MB">
<path fill="none" stroke="black" d="M1206,-365.52C1206,-349.4 1206,-329.51 1206,-313.53"/>
<polygon fill="black" stroke="black" points="1209.5,-313.72 1206,-303.72 1202.5,-313.72 1209.5,-313.72"/>
</a>
</g>
<g id="a_edge5&#45;label"><a xlink:title="100.66MB">
<text text-anchor="middle" x="1245.5" y="-323.8" font-family="Times,serif" font-size="14.00"> 100.66MB</text>
</a>
</g>
</g>
<!-- N7 -->
<g id="node7" class="node">
<title>N7</title>
<g id="a_node7"><a xlink:title="os.ReadFile (100.66MB)">
<polygon fill="#edebe8" stroke="#b2a48d" points="1364.5,-229 1235.5,-229 1235.5,-182 1364.5,-182 1364.5,-229"/>
<text text-anchor="middle" x="1300" y="-215.4" font-family="Times,serif" font-size="12.00">os</text>
<text text-anchor="middle" x="1300" y="-202.4" font-family="Times,serif" font-size="12.00">ReadFile</text>
<text text-anchor="middle" x="1300" y="-189.4" font-family="Times,serif" font-size="12.00">100.66MB (4.19%)</text>
</a>
</g>
</g>
<!-- N5&#45;&gt;N7 -->
<g id="edge18" class="edge">
<title>N5&#45;&gt;N7</title>
<g id="a_edge18"><a xlink:title="github.com/pineman/code/chall/aoc2022/go.getInput &#45;&gt; os.ReadFile (100.66MB)">
<path fill="none" stroke="#b2a48d" d="M1258.11,-365.7C1268.99,-357.19 1279.21,-346.92 1286,-335 1302.45,-306.13 1304.55,-267.66 1303.4,-240.36"/>
<polygon fill="#b2a48d" stroke="#b2a48d" points="1306.91,-240.32 1302.81,-230.55 1299.92,-240.74 1306.91,-240.32"/>
</a>
</g>
<g id="a_edge18&#45;label"><a xlink:title="github.com/pineman/code/chall/aoc2022/go.getInput &#45;&gt; os.ReadFile (100.66MB)">
<text text-anchor="middle" x="1342.5" y="-280.3" font-family="Times,serif" font-size="14.00"> 100.66MB</text>
</a>
</g>
</g>
<!-- N11 -->
<g id="node11" class="node">
<title>N11</title>
<g id="a_node11"><a xlink:title="strings.Split (49.07MB)">
<polygon fill="#edecea" stroke="#b2aca0" points="1487.5,-223.5 1382.5,-223.5 1382.5,-187.5 1487.5,-187.5 1487.5,-223.5"/>
<text text-anchor="middle" x="1435" y="-212.6" font-family="Times,serif" font-size="8.00">strings</text>
<text text-anchor="middle" x="1435" y="-203.6" font-family="Times,serif" font-size="8.00">Split</text>
<text text-anchor="middle" x="1435" y="-194.6" font-family="Times,serif" font-size="8.00">0 of 49.07MB (2.04%)</text>
</a>
</g>
</g>
<!-- N5&#45;&gt;N11 -->
<g id="edge19" class="edge">
<title>N5&#45;&gt;N11</title>
<g id="a_edge19"><a xlink:title="github.com/pineman/code/chall/aoc2022/go.getInput &#45;&gt; strings.Split (49.07MB)">
<path fill="none" stroke="#b2aca0" d="M1282.32,-368.1C1317.19,-352.88 1357.06,-331.02 1386,-302 1404.87,-283.07 1417.98,-255.37 1425.86,-234.68"/>
<polygon fill="#b2aca0" stroke="#b2aca0" points="1429.1,-236.02 1429.19,-225.42 1422.51,-233.65 1429.1,-236.02"/>
</a>
</g>
<g id="a_edge19&#45;label"><a xlink:title="github.com/pineman/code/chall/aoc2022/go.getInput &#45;&gt; strings.Split (49.07MB)">
<text text-anchor="middle" x="1446" y="-287.8" font-family="Times,serif" font-size="14.00"> 49.07MB</text>
<text text-anchor="middle" x="1446" y="-272.8" font-family="Times,serif" font-size="14.00"> (inline)</text>
</a>
</g>
</g>
<!-- NN6_0 -->
<g id="NN6_0" class="node">
<title>NN6_0</title>
<g id="a_NN6_0"><a xlink:title="93.50MB">
<polygon fill="#f8f8f8" stroke="black" points="904,-302 854,-302 850,-298 850,-266 900,-266 904,-270 904,-302"/>
<polyline fill="none" stroke="black" points="900,-298 850,-298"/>
<polyline fill="none" stroke="black" points="900,-298 900,-266"/>
<polyline fill="none" stroke="black" points="900,-298 904,-302"/>
<text text-anchor="middle" x="877" y="-282.1" font-family="Times,serif" font-size="8.00">24B</text>
</a>
</g>
</g>
<!-- N6&#45;&gt;NN6_0 -->
<g id="edge6" class="edge">
<title>N6&#45;&gt;NN6_0</title>
<g id="a_edge6"><a xlink:title="93.50MB">
<path fill="none" stroke="black" d="M900.07,-372.13C891.48,-361.67 882.6,-348.58 878,-335 875.72,-328.26 874.79,-320.7 874.59,-313.55"/>
<polygon fill="black" stroke="black" points="878.09,-313.69 874.8,-303.62 871.09,-313.54 878.09,-313.69"/>
</a>
</g>
<g id="a_edge6&#45;label"><a xlink:title="93.50MB">
<text text-anchor="middle" x="913" y="-323.8" font-family="Times,serif" font-size="14.00"> 93.50MB</text>
</a>
</g>
</g>
<!-- NN6_1 -->
<g id="NN6_1" class="node">
<title>NN6_1</title>
<g id="a_NN6_1"><a xlink:title="18.50MB">
<polygon fill="#f8f8f8" stroke="black" points="997,-302 947,-302 943,-298 943,-266 993,-266 997,-270 997,-302"/>
<polyline fill="none" stroke="black" points="993,-298 943,-298"/>
<polyline fill="none" stroke="black" points="993,-298 993,-266"/>
<polyline fill="none" stroke="black" points="993,-298 997,-302"/>
<text text-anchor="middle" x="970" y="-282.1" font-family="Times,serif" font-size="8.00">224B</text>
</a>
</g>
</g>
<!-- N6&#45;&gt;NN6_1 -->
<g id="edge7" class="edge">
<title>N6&#45;&gt;NN6_1</title>
<g id="a_edge7"><a xlink:title="18.50MB">
<path fill="none" stroke="black" d="M931.95,-372.21C939.49,-354.93 949.88,-331.1 957.9,-312.72"/>
<polygon fill="black" stroke="black" points="961.03,-314.3 961.82,-303.74 954.62,-311.5 961.03,-314.3"/>
</a>
</g>
<g id="a_edge7&#45;label"><a xlink:title="18.50MB">
<text text-anchor="middle" x="989" y="-323.8" font-family="Times,serif" font-size="14.00"> 18.50MB</text>
</a>
</g>
</g>
<!-- NN7_0 -->
<g id="NN7_0" class="node">
<title>NN7_0</title>
<g id="a_NN7_0"><a xlink:title="100.66MB">
<polygon fill="#f8f8f8" stroke="black" points="1329.5,-127 1274.5,-127 1270.5,-123 1270.5,-91 1325.5,-91 1329.5,-95 1329.5,-127"/>
<polyline fill="none" stroke="black" points="1325.5,-123 1270.5,-123"/>
<polyline fill="none" stroke="black" points="1325.5,-123 1325.5,-91"/>
<polyline fill="none" stroke="black" points="1325.5,-123 1329.5,-127"/>
<text text-anchor="middle" x="1300" y="-107.1" font-family="Times,serif" font-size="8.00">100.66MB</text>
</a>
</g>
</g>
<!-- N7&#45;&gt;NN7_0 -->
<g id="edge8" class="edge">
<title>N7&#45;&gt;NN7_0</title>
<g id="a_edge8"><a xlink:title="100.66MB">
<path fill="none" stroke="black" d="M1300,-181.62C1300,-168.7 1300,-152.42 1300,-138.64"/>
<polygon fill="black" stroke="black" points="1303.5,-138.85 1300,-128.85 1296.5,-138.85 1303.5,-138.85"/>
</a>
</g>
<g id="a_edge8&#45;label"><a xlink:title="100.66MB">
<text text-anchor="middle" x="1339.5" y="-152.8" font-family="Times,serif" font-size="14.00"> 100.66MB</text>
</a>
</g>
</g>
<!-- N8 -->
<g id="node8" class="node">
<title>N8</title>
<g id="a_node8"><a xlink:title="strings.genSplit (49.07MB)">
<polygon fill="#edecea" stroke="#b2aca0" points="1492,-131 1378,-131 1378,-87 1492,-87 1492,-131"/>
<text text-anchor="middle" x="1435" y="-118.2" font-family="Times,serif" font-size="11.00">strings</text>
<text text-anchor="middle" x="1435" y="-106.2" font-family="Times,serif" font-size="11.00">genSplit</text>
<text text-anchor="middle" x="1435" y="-94.2" font-family="Times,serif" font-size="11.00">49.07MB (2.04%)</text>
</a>
</g>
</g>
<!-- NN8_0 -->
<g id="NN8_0" class="node">
<title>NN8_0</title>
<g id="a_NN8_0"><a xlink:title="49.07MB">
<polygon fill="#f8f8f8" stroke="black" points="1462,-36 1412,-36 1408,-32 1408,0 1458,0 1462,-4 1462,-36"/>
<polyline fill="none" stroke="black" points="1458,-32 1408,-32"/>
<polyline fill="none" stroke="black" points="1458,-32 1458,0"/>
<polyline fill="none" stroke="black" points="1458,-32 1462,-36"/>
<text text-anchor="middle" x="1435" y="-16.1" font-family="Times,serif" font-size="8.00">49.07MB</text>
</a>
</g>
</g>
<!-- N8&#45;&gt;NN8_0 -->
<g id="edge9" class="edge">
<title>N8&#45;&gt;NN8_0</title>
<g id="a_edge9"><a xlink:title="49.07MB">
<path fill="none" stroke="black" d="M1435,-86.91C1435,-75.22 1435,-60.52 1435,-47.79"/>
<polygon fill="black" stroke="black" points="1438.5,-47.87 1435,-37.87 1431.5,-47.87 1438.5,-47.87"/>
</a>
</g>
<g id="a_edge9&#45;label"><a xlink:title="49.07MB">
<text text-anchor="middle" x="1470" y="-57.8" font-family="Times,serif" font-size="14.00"> 49.07MB</text>
</a>
</g>
</g>
<!-- NN9_0 -->
<g id="NN9_0" class="node">
<title>NN9_0</title>
<g id="a_NN9_0"><a xlink:title="46MB">
<polygon fill="#f8f8f8" stroke="black" points="1090,-302 1040,-302 1036,-298 1036,-266 1086,-266 1090,-270 1090,-302"/>
<polyline fill="none" stroke="black" points="1086,-298 1036,-298"/>
<polyline fill="none" stroke="black" points="1086,-298 1086,-266"/>
<polyline fill="none" stroke="black" points="1086,-298 1090,-302"/>
<text text-anchor="middle" x="1063" y="-282.1" font-family="Times,serif" font-size="8.00">24B</text>
</a>
</g>
</g>
<!-- N9&#45;&gt;NN9_0 -->
<g id="edge10" class="edge">
<title>N9&#45;&gt;NN9_0</title>
<g id="a_edge10"><a xlink:title="46MB">
<path fill="none" stroke="black" d="M1063,-373.53C1063,-356.5 1063,-332.54 1063,-313.84"/>
<polygon fill="black" stroke="black" points="1066.5,-313.95 1063,-303.95 1059.5,-313.95 1066.5,-313.95"/>
</a>
</g>
<g id="a_edge10&#45;label"><a xlink:title="46MB">
<text text-anchor="middle" x="1087" y="-323.8" font-family="Times,serif" font-size="14.00"> 46MB</text>
</a>
</g>
</g>
<!-- N10&#45;&gt;N5 -->
<g id="edge15" class="edge">
<title>N10&#45;&gt;N5</title>
<g id="a_edge15"><a xlink:title="github.com/pineman/code/chall/aoc2022/go.GetBigBoyInput &#45;&gt; github.com/pineman/code/chall/aoc2022/go.getInput (250.38MB)">
<path fill="none" stroke="#b28355" d="M1038.9,-504.57C1050.84,-499.36 1063.6,-493.33 1075,-487 1103.64,-471.09 1133.89,-450.57 1158.1,-433.15"/>
<polygon fill="#b28355" stroke="#b28355" points="1160.15,-435.99 1166.18,-427.28 1156.03,-430.33 1160.15,-435.99"/>
</a>
</g>
<g id="a_edge15&#45;label"><a xlink:title="github.com/pineman/code/chall/aoc2022/go.GetBigBoyInput &#45;&gt; github.com/pineman/code/chall/aoc2022/go.getInput (250.38MB)">
<text text-anchor="middle" x="1162.5" y="-468.3" font-family="Times,serif" font-size="14.00"> 250.38MB</text>
</a>
</g>
</g>
<!-- N11&#45;&gt;N8 -->
<g id="edge20" class="edge">
<title>N11&#45;&gt;N8</title>
<g id="a_edge20"><a xlink:title="strings.Split &#45;&gt; strings.genSplit (49.07MB)">
<path fill="none" stroke="#b2aca0" d="M1435,-187.17C1435,-174.72 1435,-157.57 1435,-142.6"/>
<polygon fill="#b2aca0" stroke="#b2aca0" points="1438.5,-142.71 1435,-132.71 1431.5,-142.71 1438.5,-142.71"/>
</a>
</g>
<g id="a_edge20&#45;label"><a xlink:title="strings.Split &#45;&gt; strings.genSplit (49.07MB)">
<text text-anchor="middle" x="1470" y="-152.8" font-family="Times,serif" font-size="14.00"> 49.07MB</text>
</a>
</g>
</g>
<!-- N12&#45;&gt;N3 -->
<g id="edge12" class="edge">
<title>N12&#45;&gt;N3</title>
<g id="a_edge12"><a xlink:title="testing.(*B).runN &#45;&gt; github.com/pineman/code/chall/aoc2022/go/day3.Benchmark_partTwoBigBoy_set (2395.03MB)">
<path fill="none" stroke="#b20000" stroke-width="5" d="M703,-678.91C703,-668.55 703,-655.82 703,-644.19"/>
<polygon fill="#b20000" stroke="#b20000" stroke-width="5" points="707.38,-644.59 703,-634.59 698.63,-644.59 707.38,-644.59"/>
</a>
</g>
<g id="a_edge12&#45;label"><a xlink:title="testing.(*B).runN &#45;&gt; github.com/pineman/code/chall/aoc2022/go/day3.Benchmark_partTwoBigBoy_set (2395.03MB)">
<text text-anchor="middle" x="747" y="-649.8" font-family="Times,serif" font-size="14.00"> 2395.03MB</text>
</a>
</g>
</g>
</g>
</g></svg>
